<svg xmlns="http://www.w3.org/2000/svg" xmlns:xlink="http://www.w3.org/1999/xlink" width="600" height="400" viewBox="0 0 2400 1600">
<defs>
  <clipPath id="clip560">
    <rect x="0" y="0" width="2400" height="1600"></rect>
  </clipPath>
</defs>
<path clip-path="url(#clip560)" d="M0 1600 L2400 1600 L2400 0 L0 0  Z" fill="#ffffff" fill-rule="evenodd" fill-opacity="1"></path>
<defs>
  <clipPath id="clip561">
    <rect x="480" y="0" width="1681" height="1600"></rect>
  </clipPath>
</defs>
<path clip-path="url(#clip560)" d="M280.19 1410.9 L2352.76 1410.9 L2352.76 47.2441 L280.19 47.2441  Z" fill="#ffffff" fill-rule="evenodd" fill-opacity="1"></path>
<defs>
  <clipPath id="clip562">
    <rect x="280" y="47" width="2074" height="1365"></rect>
  </clipPath>
</defs>
<polyline clip-path="url(#clip562)" style="stroke:#000000; stroke-linecap:round; stroke-linejoin:round; stroke-width:2; stroke-opacity:0.1; fill:none" points="846.058,1410.9 846.058,47.2441 "></polyline>
<polyline clip-path="url(#clip562)" style="stroke:#000000; stroke-linecap:round; stroke-linejoin:round; stroke-width:2; stroke-opacity:0.1; fill:none" points="2077.29,1410.9 2077.29,47.2441 "></polyline>
<polyline clip-path="url(#clip560)" style="stroke:#000000; stroke-linecap:round; stroke-linejoin:round; stroke-width:4; stroke-opacity:1; fill:none" points="280.19,1410.9 2352.76,1410.9 "></polyline>
<polyline clip-path="url(#clip560)" style="stroke:#000000; stroke-linecap:round; stroke-linejoin:round; stroke-width:4; stroke-opacity:1; fill:none" points="846.058,1410.9 846.058,1392 "></polyline>
<polyline clip-path="url(#clip560)" style="stroke:#000000; stroke-linecap:round; stroke-linejoin:round; stroke-width:4; stroke-opacity:1; fill:none" points="2077.29,1410.9 2077.29,1392 "></polyline>
<path clip-path="url(#clip560)" d="M812.386 1485.02 L820.025 1485.02 L820.025 1458.66 L811.715 1460.32 L811.715 1456.06 L819.979 1454.4 L824.655 1454.4 L824.655 1485.02 L832.293 1485.02 L832.293 1488.96 L812.386 1488.96 L812.386 1485.02 Z" fill="#000000" fill-rule="nonzero" fill-opacity="1"></path><path clip-path="url(#clip560)" d="M851.738 1457.48 Q848.127 1457.48 846.298 1461.04 Q844.492 1464.58 844.492 1471.71 Q844.492 1478.82 846.298 1482.38 Q848.127 1485.92 851.738 1485.92 Q855.372 1485.92 857.177 1482.38 Q859.006 1478.82 859.006 1471.71 Q859.006 1464.58 857.177 1461.04 Q855.372 1457.48 851.738 1457.48 M851.738 1453.77 Q857.548 1453.77 860.603 1458.38 Q863.682 1462.96 863.682 1471.71 Q863.682 1480.44 860.603 1485.04 Q857.548 1489.63 851.738 1489.63 Q845.928 1489.63 842.849 1485.04 Q839.793 1480.44 839.793 1471.71 Q839.793 1462.96 842.849 1458.38 Q845.928 1453.77 851.738 1453.77 Z" fill="#000000" fill-rule="nonzero" fill-opacity="1"></path><path clip-path="url(#clip560)" d="M864.228 1458.35 L870.434 1458.35 L870.434 1436.93 L863.682 1438.28 L863.682 1434.82 L870.396 1433.47 L874.196 1433.47 L874.196 1458.35 L880.402 1458.35 L880.402 1461.55 L864.228 1461.55 L864.228 1458.35 Z" fill="#000000" fill-rule="nonzero" fill-opacity="1"></path><path clip-path="url(#clip560)" d="M2043.06 1485.02 L2050.7 1485.02 L2050.7 1458.66 L2042.39 1460.32 L2042.39 1456.06 L2050.65 1454.4 L2055.33 1454.4 L2055.33 1485.02 L2062.97 1485.02 L2062.97 1488.96 L2043.06 1488.96 L2043.06 1485.02 Z" fill="#000000" fill-rule="nonzero" fill-opacity="1"></path><path clip-path="url(#clip560)" d="M2082.41 1457.48 Q2078.8 1457.48 2076.97 1461.04 Q2075.17 1464.58 2075.17 1471.71 Q2075.17 1478.82 2076.97 1482.38 Q2078.8 1485.92 2082.41 1485.92 Q2086.05 1485.92 2087.85 1482.38 Q2089.68 1478.82 2089.68 1471.71 Q2089.68 1464.58 2087.85 1461.04 Q2086.05 1457.48 2082.41 1457.48 M2082.41 1453.77 Q2088.22 1453.77 2091.28 1458.38 Q2094.36 1462.96 2094.36 1471.71 Q2094.36 1480.44 2091.28 1485.04 Q2088.22 1489.63 2082.41 1489.63 Q2076.6 1489.63 2073.52 1485.04 Q2070.47 1480.44 2070.47 1471.71 Q2070.47 1462.96 2073.52 1458.38 Q2076.6 1453.77 2082.41 1453.77 Z" fill="#000000" fill-rule="nonzero" fill-opacity="1"></path><path clip-path="url(#clip560)" d="M2098.93 1458.35 L2112.19 1458.35 L2112.19 1461.55 L2094.36 1461.55 L2094.36 1458.35 Q2096.52 1456.11 2100.24 1452.35 Q2103.99 1448.57 2104.95 1447.48 Q2106.77 1445.43 2107.49 1444.02 Q2108.22 1442.59 2108.22 1441.22 Q2108.22 1438.98 2106.64 1437.57 Q2105.08 1436.16 2102.56 1436.16 Q2100.77 1436.16 2098.78 1436.78 Q2096.8 1437.4 2094.55 1438.66 L2094.55 1434.82 Q2096.84 1433.9 2098.83 1433.43 Q2100.83 1432.96 2102.48 1432.96 Q2106.85 1432.96 2109.44 1435.14 Q2112.04 1437.32 2112.04 1440.97 Q2112.04 1442.7 2111.38 1444.26 Q2110.74 1445.8 2109.03 1447.91 Q2108.56 1448.46 2106.04 1451.07 Q2103.52 1453.67 2098.93 1458.35 Z" fill="#000000" fill-rule="nonzero" fill-opacity="1"></path><path clip-path="url(#clip560)" d="M1320.47 1567.69 Q1321.61 1569.22 1325.05 1569.22 L1327.88 1569.22 L1327.88 1574.19 L1324.35 1574.19 Q1318.62 1574.19 1316.01 1571.13 Q1313.4 1568.01 1313.4 1561.26 L1313.4 1544.39 L1300.03 1544.39 L1300.03 1538.54 L1332.91 1538.54 L1332.91 1544.39 L1319.39 1544.39 L1319.39 1561.61 Q1319.39 1566.23 1320.47 1567.69 Z" fill="#000000" fill-rule="nonzero" fill-opacity="1"></path><polyline clip-path="url(#clip562)" style="stroke:#000000; stroke-linecap:round; stroke-linejoin:round; stroke-width:2; stroke-opacity:0.1; fill:none" points="280.19,1387.23 2352.76,1387.23 "></polyline>
<polyline clip-path="url(#clip562)" style="stroke:#000000; stroke-linecap:round; stroke-linejoin:round; stroke-width:2; stroke-opacity:0.1; fill:none" points="280.19,1179.29 2352.76,1179.29 "></polyline>
<polyline clip-path="url(#clip562)" style="stroke:#000000; stroke-linecap:round; stroke-linejoin:round; stroke-width:2; stroke-opacity:0.1; fill:none" points="280.19,971.362 2352.76,971.362 "></polyline>
<polyline clip-path="url(#clip562)" style="stroke:#000000; stroke-linecap:round; stroke-linejoin:round; stroke-width:2; stroke-opacity:0.1; fill:none" points="280.19,763.429 2352.76,763.429 "></polyline>
<polyline clip-path="url(#clip562)" style="stroke:#000000; stroke-linecap:round; stroke-linejoin:round; stroke-width:2; stroke-opacity:0.1; fill:none" points="280.19,555.497 2352.76,555.497 "></polyline>
<polyline clip-path="url(#clip562)" style="stroke:#000000; stroke-linecap:round; stroke-linejoin:round; stroke-width:2; stroke-opacity:0.1; fill:none" points="280.19,347.564 2352.76,347.564 "></polyline>
<polyline clip-path="url(#clip562)" style="stroke:#000000; stroke-linecap:round; stroke-linejoin:round; stroke-width:2; stroke-opacity:0.1; fill:none" points="280.19,139.631 2352.76,139.631 "></polyline>
<polyline clip-path="url(#clip560)" style="stroke:#000000; stroke-linecap:round; stroke-linejoin:round; stroke-width:4; stroke-opacity:1; fill:none" points="280.19,1410.9 280.19,47.2441 "></polyline>
<polyline clip-path="url(#clip560)" style="stroke:#000000; stroke-linecap:round; stroke-linejoin:round; stroke-width:4; stroke-opacity:1; fill:none" points="280.19,1387.23 299.088,1387.23 "></polyline>
<polyline clip-path="url(#clip560)" style="stroke:#000000; stroke-linecap:round; stroke-linejoin:round; stroke-width:4; stroke-opacity:1; fill:none" points="280.19,1179.29 299.088,1179.29 "></polyline>
<polyline clip-path="url(#clip560)" style="stroke:#000000; stroke-linecap:round; stroke-linejoin:round; stroke-width:4; stroke-opacity:1; fill:none" points="280.19,971.362 299.088,971.362 "></polyline>
<polyline clip-path="url(#clip560)" style="stroke:#000000; stroke-linecap:round; stroke-linejoin:round; stroke-width:4; stroke-opacity:1; fill:none" points="280.19,763.429 299.088,763.429 "></polyline>
<polyline clip-path="url(#clip560)" style="stroke:#000000; stroke-linecap:round; stroke-linejoin:round; stroke-width:4; stroke-opacity:1; fill:none" points="280.19,555.497 299.088,555.497 "></polyline>
<polyline clip-path="url(#clip560)" style="stroke:#000000; stroke-linecap:round; stroke-linejoin:round; stroke-width:4; stroke-opacity:1; fill:none" points="280.19,347.564 299.088,347.564 "></polyline>
<polyline clip-path="url(#clip560)" style="stroke:#000000; stroke-linecap:round; stroke-linejoin:round; stroke-width:4; stroke-opacity:1; fill:none" points="280.19,139.631 299.088,139.631 "></polyline>
<path clip-path="url(#clip560)" d="M126.691 1373.03 Q123.08 1373.03 121.251 1376.59 Q119.445 1380.13 119.445 1387.26 Q119.445 1394.37 121.251 1397.93 Q123.08 1401.48 126.691 1401.48 Q130.325 1401.48 132.13 1397.93 Q133.959 1394.37 133.959 1387.26 Q133.959 1380.13 132.13 1376.59 Q130.325 1373.03 126.691 1373.03 M126.691 1369.32 Q132.501 1369.32 135.556 1373.93 Q138.635 1378.51 138.635 1387.26 Q138.635 1395.99 135.556 1400.6 Q132.501 1405.18 126.691 1405.18 Q120.88 1405.18 117.802 1400.6 Q114.746 1395.99 114.746 1387.26 Q114.746 1378.51 117.802 1373.93 Q120.88 1369.32 126.691 1369.32 Z" fill="#000000" fill-rule="nonzero" fill-opacity="1"></path><path clip-path="url(#clip560)" d="M146.853 1398.63 L151.737 1398.63 L151.737 1404.51 L146.853 1404.51 L146.853 1398.63 Z" fill="#000000" fill-rule="nonzero" fill-opacity="1"></path><path clip-path="url(#clip560)" d="M171.922 1373.03 Q168.311 1373.03 166.482 1376.59 Q164.677 1380.13 164.677 1387.26 Q164.677 1394.37 166.482 1397.93 Q168.311 1401.48 171.922 1401.48 Q175.556 1401.48 177.362 1397.93 Q179.19 1394.37 179.19 1387.26 Q179.19 1380.13 177.362 1376.59 Q175.556 1373.03 171.922 1373.03 M171.922 1369.32 Q177.732 1369.32 180.788 1373.93 Q183.866 1378.51 183.866 1387.26 Q183.866 1395.99 180.788 1400.6 Q177.732 1405.18 171.922 1405.18 Q166.112 1405.18 163.033 1400.6 Q159.978 1395.99 159.978 1387.26 Q159.978 1378.51 163.033 1373.93 Q166.112 1369.32 171.922 1369.32 Z" fill="#000000" fill-rule="nonzero" fill-opacity="1"></path><path clip-path="url(#clip560)" d="M202.084 1373.03 Q198.473 1373.03 196.644 1376.59 Q194.838 1380.13 194.838 1387.26 Q194.838 1394.37 196.644 1397.93 Q198.473 1401.48 202.084 1401.48 Q205.718 1401.48 207.524 1397.93 Q209.352 1394.37 209.352 1387.26 Q209.352 1380.13 207.524 1376.59 Q205.718 1373.03 202.084 1373.03 M202.084 1369.32 Q207.894 1369.32 210.949 1373.93 Q214.028 1378.51 214.028 1387.26 Q214.028 1395.99 210.949 1400.6 Q207.894 1405.18 202.084 1405.18 Q196.274 1405.18 193.195 1400.6 Q190.139 1395.99 190.139 1387.26 Q190.139 1378.51 193.195 1373.93 Q196.274 1369.32 202.084 1369.32 Z" fill="#000000" fill-rule="nonzero" fill-opacity="1"></path><path clip-path="url(#clip560)" d="M232.246 1373.03 Q228.635 1373.03 226.806 1376.59 Q225 1380.13 225 1387.26 Q225 1394.37 226.806 1397.93 Q228.635 1401.48 232.246 1401.48 Q235.88 1401.48 237.685 1397.93 Q239.514 1394.37 239.514 1387.26 Q239.514 1380.13 237.685 1376.59 Q235.88 1373.03 232.246 1373.03 M232.246 1369.32 Q238.056 1369.32 241.111 1373.93 Q244.19 1378.51 244.19 1387.26 Q244.19 1395.99 241.111 1400.6 Q238.056 1405.18 232.246 1405.18 Q226.435 1405.18 223.357 1400.6 Q220.301 1395.99 220.301 1387.26 Q220.301 1378.51 223.357 1373.93 Q226.435 1369.32 232.246 1369.32 Z" fill="#000000" fill-rule="nonzero" fill-opacity="1"></path><path clip-path="url(#clip560)" d="M127.917 1165.09 Q124.306 1165.09 122.478 1168.66 Q120.672 1172.2 120.672 1179.33 Q120.672 1186.44 122.478 1190 Q124.306 1193.54 127.917 1193.54 Q131.552 1193.54 133.357 1190 Q135.186 1186.44 135.186 1179.33 Q135.186 1172.2 133.357 1168.66 Q131.552 1165.09 127.917 1165.09 M127.917 1161.39 Q133.728 1161.39 136.783 1166 Q139.862 1170.58 139.862 1179.33 Q139.862 1188.06 136.783 1192.66 Q133.728 1197.25 127.917 1197.25 Q122.107 1197.25 119.029 1192.66 Q115.973 1188.06 115.973 1179.33 Q115.973 1170.58 119.029 1166 Q122.107 1161.39 127.917 1161.39 Z" fill="#000000" fill-rule="nonzero" fill-opacity="1"></path><path clip-path="url(#clip560)" d="M148.079 1190.7 L152.964 1190.7 L152.964 1196.57 L148.079 1196.57 L148.079 1190.7 Z" fill="#000000" fill-rule="nonzero" fill-opacity="1"></path><path clip-path="url(#clip560)" d="M173.149 1165.09 Q169.538 1165.09 167.709 1168.66 Q165.903 1172.2 165.903 1179.33 Q165.903 1186.44 167.709 1190 Q169.538 1193.54 173.149 1193.54 Q176.783 1193.54 178.589 1190 Q180.417 1186.44 180.417 1179.33 Q180.417 1172.2 178.589 1168.66 Q176.783 1165.09 173.149 1165.09 M173.149 1161.39 Q178.959 1161.39 182.014 1166 Q185.093 1170.58 185.093 1179.33 Q185.093 1188.06 182.014 1192.66 Q178.959 1197.25 173.149 1197.25 Q167.339 1197.25 164.26 1192.66 Q161.204 1188.06 161.204 1179.33 Q161.204 1170.58 164.26 1166 Q167.339 1161.39 173.149 1161.39 Z" fill="#000000" fill-rule="nonzero" fill-opacity="1"></path><path clip-path="url(#clip560)" d="M203.311 1165.09 Q199.7 1165.09 197.871 1168.66 Q196.065 1172.2 196.065 1179.33 Q196.065 1186.44 197.871 1190 Q199.7 1193.54 203.311 1193.54 Q206.945 1193.54 208.75 1190 Q210.579 1186.44 210.579 1179.33 Q210.579 1172.2 208.75 1168.66 Q206.945 1165.09 203.311 1165.09 M203.311 1161.39 Q209.121 1161.39 212.176 1166 Q215.255 1170.58 215.255 1179.33 Q215.255 1188.06 212.176 1192.66 Q209.121 1197.25 203.311 1197.25 Q197.5 1197.25 194.422 1192.66 Q191.366 1188.06 191.366 1179.33 Q191.366 1170.58 194.422 1166 Q197.5 1161.39 203.311 1161.39 Z" fill="#000000" fill-rule="nonzero" fill-opacity="1"></path><path clip-path="url(#clip560)" d="M224.283 1192.64 L231.922 1192.64 L231.922 1166.27 L223.611 1167.94 L223.611 1163.68 L231.875 1162.01 L236.551 1162.01 L236.551 1192.64 L244.19 1192.64 L244.19 1196.57 L224.283 1196.57 L224.283 1192.64 Z" fill="#000000" fill-rule="nonzero" fill-opacity="1"></path><path clip-path="url(#clip560)" d="M128.288 957.161 Q124.677 957.161 122.848 960.726 Q121.043 964.267 121.043 971.397 Q121.043 978.503 122.848 982.068 Q124.677 985.61 128.288 985.61 Q131.922 985.61 133.728 982.068 Q135.556 978.503 135.556 971.397 Q135.556 964.267 133.728 960.726 Q131.922 957.161 128.288 957.161 M128.288 953.457 Q134.098 953.457 137.154 958.064 Q140.232 962.647 140.232 971.397 Q140.232 980.124 137.154 984.73 Q134.098 989.313 128.288 989.313 Q122.478 989.313 119.399 984.73 Q116.343 980.124 116.343 971.397 Q116.343 962.647 119.399 958.064 Q122.478 953.457 128.288 953.457 Z" fill="#000000" fill-rule="nonzero" fill-opacity="1"></path><path clip-path="url(#clip560)" d="M148.45 982.763 L153.334 982.763 L153.334 988.642 L148.45 988.642 L148.45 982.763 Z" fill="#000000" fill-rule="nonzero" fill-opacity="1"></path><path clip-path="url(#clip560)" d="M173.519 957.161 Q169.908 957.161 168.079 960.726 Q166.274 964.267 166.274 971.397 Q166.274 978.503 168.079 982.068 Q169.908 985.61 173.519 985.61 Q177.153 985.61 178.959 982.068 Q180.788 978.503 180.788 971.397 Q180.788 964.267 178.959 960.726 Q177.153 957.161 173.519 957.161 M173.519 953.457 Q179.329 953.457 182.385 958.064 Q185.463 962.647 185.463 971.397 Q185.463 980.124 182.385 984.73 Q179.329 989.313 173.519 989.313 Q167.709 989.313 164.63 984.73 Q161.575 980.124 161.575 971.397 Q161.575 962.647 164.63 958.064 Q167.709 953.457 173.519 953.457 Z" fill="#000000" fill-rule="nonzero" fill-opacity="1"></path><path clip-path="url(#clip560)" d="M203.681 957.161 Q200.07 957.161 198.241 960.726 Q196.436 964.267 196.436 971.397 Q196.436 978.503 198.241 982.068 Q200.07 985.61 203.681 985.61 Q207.315 985.61 209.121 982.068 Q210.949 978.503 210.949 971.397 Q210.949 964.267 209.121 960.726 Q207.315 957.161 203.681 957.161 M203.681 953.457 Q209.491 953.457 212.547 958.064 Q215.625 962.647 215.625 971.397 Q215.625 980.124 212.547 984.73 Q209.491 989.313 203.681 989.313 Q197.871 989.313 194.792 984.73 Q191.737 980.124 191.737 971.397 Q191.737 962.647 194.792 958.064 Q197.871 953.457 203.681 953.457 Z" fill="#000000" fill-rule="nonzero" fill-opacity="1"></path><path clip-path="url(#clip560)" d="M227.871 984.707 L244.19 984.707 L244.19 988.642 L222.246 988.642 L222.246 984.707 Q224.908 981.952 229.491 977.323 Q234.097 972.67 235.278 971.327 Q237.523 968.804 238.403 967.068 Q239.306 965.309 239.306 963.619 Q239.306 960.864 237.361 959.128 Q235.44 957.392 232.338 957.392 Q230.139 957.392 227.685 958.156 Q225.255 958.92 222.477 960.471 L222.477 955.749 Q225.301 954.615 227.755 954.036 Q230.209 953.457 232.246 953.457 Q237.616 953.457 240.81 956.142 Q244.005 958.827 244.005 963.318 Q244.005 965.448 243.195 967.369 Q242.408 969.267 240.301 971.86 Q239.722 972.531 236.621 975.749 Q233.519 978.943 227.871 984.707 Z" fill="#000000" fill-rule="nonzero" fill-opacity="1"></path><path clip-path="url(#clip560)" d="M127.339 749.228 Q123.728 749.228 121.899 752.793 Q120.093 756.334 120.093 763.464 Q120.093 770.571 121.899 774.135 Q123.728 777.677 127.339 777.677 Q130.973 777.677 132.779 774.135 Q134.607 770.571 134.607 763.464 Q134.607 756.334 132.779 752.793 Q130.973 749.228 127.339 749.228 M127.339 745.524 Q133.149 745.524 136.204 750.131 Q139.283 754.714 139.283 763.464 Q139.283 772.191 136.204 776.797 Q133.149 781.381 127.339 781.381 Q121.529 781.381 118.45 776.797 Q115.394 772.191 115.394 763.464 Q115.394 754.714 118.45 750.131 Q121.529 745.524 127.339 745.524 Z" fill="#000000" fill-rule="nonzero" fill-opacity="1"></path><path clip-path="url(#clip560)" d="M147.501 774.83 L152.385 774.83 L152.385 780.709 L147.501 780.709 L147.501 774.83 Z" fill="#000000" fill-rule="nonzero" fill-opacity="1"></path><path clip-path="url(#clip560)" d="M172.57 749.228 Q168.959 749.228 167.13 752.793 Q165.325 756.334 165.325 763.464 Q165.325 770.571 167.13 774.135 Q168.959 777.677 172.57 777.677 Q176.204 777.677 178.01 774.135 Q179.839 770.571 179.839 763.464 Q179.839 756.334 178.01 752.793 Q176.204 749.228 172.57 749.228 M172.57 745.524 Q178.38 745.524 181.436 750.131 Q184.514 754.714 184.514 763.464 Q184.514 772.191 181.436 776.797 Q178.38 781.381 172.57 781.381 Q166.76 781.381 163.681 776.797 Q160.626 772.191 160.626 763.464 Q160.626 754.714 163.681 750.131 Q166.76 745.524 172.57 745.524 Z" fill="#000000" fill-rule="nonzero" fill-opacity="1"></path><path clip-path="url(#clip560)" d="M202.732 749.228 Q199.121 749.228 197.292 752.793 Q195.487 756.334 195.487 763.464 Q195.487 770.571 197.292 774.135 Q199.121 777.677 202.732 777.677 Q206.366 777.677 208.172 774.135 Q210 770.571 210 763.464 Q210 756.334 208.172 752.793 Q206.366 749.228 202.732 749.228 M202.732 745.524 Q208.542 745.524 211.598 750.131 Q214.676 754.714 214.676 763.464 Q214.676 772.191 211.598 776.797 Q208.542 781.381 202.732 781.381 Q196.922 781.381 193.843 776.797 Q190.788 772.191 190.788 763.464 Q190.788 754.714 193.843 750.131 Q196.922 745.524 202.732 745.524 Z" fill="#000000" fill-rule="nonzero" fill-opacity="1"></path><path clip-path="url(#clip560)" d="M237.06 762.075 Q240.417 762.793 242.292 765.061 Q244.19 767.33 244.19 770.663 Q244.19 775.779 240.672 778.58 Q237.153 781.381 230.672 781.381 Q228.496 781.381 226.181 780.941 Q223.889 780.524 221.436 779.668 L221.436 775.154 Q223.38 776.288 225.695 776.867 Q228.01 777.445 230.533 777.445 Q234.931 777.445 237.222 775.709 Q239.537 773.973 239.537 770.663 Q239.537 767.608 237.384 765.895 Q235.255 764.159 231.435 764.159 L227.408 764.159 L227.408 760.316 L231.621 760.316 Q235.07 760.316 236.898 758.95 Q238.727 757.561 238.727 754.969 Q238.727 752.307 236.829 750.895 Q234.954 749.46 231.435 749.46 Q229.514 749.46 227.315 749.876 Q225.116 750.293 222.477 751.172 L222.477 747.006 Q225.139 746.265 227.454 745.895 Q229.792 745.524 231.852 745.524 Q237.176 745.524 240.278 747.955 Q243.38 750.362 243.38 754.483 Q243.38 757.353 241.736 759.344 Q240.093 761.311 237.06 762.075 Z" fill="#000000" fill-rule="nonzero" fill-opacity="1"></path><path clip-path="url(#clip560)" d="M126.205 541.295 Q122.593 541.295 120.765 544.86 Q118.959 548.402 118.959 555.531 Q118.959 562.638 120.765 566.203 Q122.593 569.744 126.205 569.744 Q129.839 569.744 131.644 566.203 Q133.473 562.638 133.473 555.531 Q133.473 548.402 131.644 544.86 Q129.839 541.295 126.205 541.295 M126.205 537.592 Q132.015 537.592 135.07 542.198 Q138.149 546.781 138.149 555.531 Q138.149 564.258 135.07 568.865 Q132.015 573.448 126.205 573.448 Q120.394 573.448 117.316 568.865 Q114.26 564.258 114.26 555.531 Q114.26 546.781 117.316 542.198 Q120.394 537.592 126.205 537.592 Z" fill="#000000" fill-rule="nonzero" fill-opacity="1"></path><path clip-path="url(#clip560)" d="M146.366 566.897 L151.251 566.897 L151.251 572.777 L146.366 572.777 L146.366 566.897 Z" fill="#000000" fill-rule="nonzero" fill-opacity="1"></path><path clip-path="url(#clip560)" d="M171.436 541.295 Q167.825 541.295 165.996 544.86 Q164.19 548.402 164.19 555.531 Q164.19 562.638 165.996 566.203 Q167.825 569.744 171.436 569.744 Q175.07 569.744 176.876 566.203 Q178.704 562.638 178.704 555.531 Q178.704 548.402 176.876 544.86 Q175.07 541.295 171.436 541.295 M171.436 537.592 Q177.246 537.592 180.301 542.198 Q183.38 546.781 183.38 555.531 Q183.38 564.258 180.301 568.865 Q177.246 573.448 171.436 573.448 Q165.626 573.448 162.547 568.865 Q159.491 564.258 159.491 555.531 Q159.491 546.781 162.547 542.198 Q165.626 537.592 171.436 537.592 Z" fill="#000000" fill-rule="nonzero" fill-opacity="1"></path><path clip-path="url(#clip560)" d="M201.598 541.295 Q197.987 541.295 196.158 544.86 Q194.352 548.402 194.352 555.531 Q194.352 562.638 196.158 566.203 Q197.987 569.744 201.598 569.744 Q205.232 569.744 207.037 566.203 Q208.866 562.638 208.866 555.531 Q208.866 548.402 207.037 544.86 Q205.232 541.295 201.598 541.295 M201.598 537.592 Q207.408 537.592 210.463 542.198 Q213.542 546.781 213.542 555.531 Q213.542 564.258 210.463 568.865 Q207.408 573.448 201.598 573.448 Q195.787 573.448 192.709 568.865 Q189.653 564.258 189.653 555.531 Q189.653 546.781 192.709 542.198 Q195.787 537.592 201.598 537.592 Z" fill="#000000" fill-rule="nonzero" fill-opacity="1"></path><path clip-path="url(#clip560)" d="M234.607 542.291 L222.801 560.74 L234.607 560.74 L234.607 542.291 M233.38 538.217 L239.259 538.217 L239.259 560.74 L244.19 560.74 L244.19 564.629 L239.259 564.629 L239.259 572.777 L234.607 572.777 L234.607 564.629 L219.005 564.629 L219.005 560.115 L233.38 538.217 Z" fill="#000000" fill-rule="nonzero" fill-opacity="1"></path><path clip-path="url(#clip560)" d="M127.686 333.363 Q124.075 333.363 122.246 336.927 Q120.441 340.469 120.441 347.599 Q120.441 354.705 122.246 358.27 Q124.075 361.811 127.686 361.811 Q131.32 361.811 133.126 358.27 Q134.954 354.705 134.954 347.599 Q134.954 340.469 133.126 336.927 Q131.32 333.363 127.686 333.363 M127.686 329.659 Q133.496 329.659 136.552 334.265 Q139.63 338.849 139.63 347.599 Q139.63 356.325 136.552 360.932 Q133.496 365.515 127.686 365.515 Q121.876 365.515 118.797 360.932 Q115.742 356.325 115.742 347.599 Q115.742 338.849 118.797 334.265 Q121.876 329.659 127.686 329.659 Z" fill="#000000" fill-rule="nonzero" fill-opacity="1"></path><path clip-path="url(#clip560)" d="M147.848 358.964 L152.732 358.964 L152.732 364.844 L147.848 364.844 L147.848 358.964 Z" fill="#000000" fill-rule="nonzero" fill-opacity="1"></path><path clip-path="url(#clip560)" d="M172.917 333.363 Q169.306 333.363 167.477 336.927 Q165.672 340.469 165.672 347.599 Q165.672 354.705 167.477 358.27 Q169.306 361.811 172.917 361.811 Q176.551 361.811 178.357 358.27 Q180.186 354.705 180.186 347.599 Q180.186 340.469 178.357 336.927 Q176.551 333.363 172.917 333.363 M172.917 329.659 Q178.727 329.659 181.783 334.265 Q184.862 338.849 184.862 347.599 Q184.862 356.325 181.783 360.932 Q178.727 365.515 172.917 365.515 Q167.107 365.515 164.028 360.932 Q160.973 356.325 160.973 347.599 Q160.973 338.849 164.028 334.265 Q167.107 329.659 172.917 329.659 Z" fill="#000000" fill-rule="nonzero" fill-opacity="1"></path><path clip-path="url(#clip560)" d="M203.079 333.363 Q199.468 333.363 197.639 336.927 Q195.834 340.469 195.834 347.599 Q195.834 354.705 197.639 358.27 Q199.468 361.811 203.079 361.811 Q206.713 361.811 208.519 358.27 Q210.348 354.705 210.348 347.599 Q210.348 340.469 208.519 336.927 Q206.713 333.363 203.079 333.363 M203.079 329.659 Q208.889 329.659 211.945 334.265 Q215.024 338.849 215.024 347.599 Q215.024 356.325 211.945 360.932 Q208.889 365.515 203.079 365.515 Q197.269 365.515 194.19 360.932 Q191.135 356.325 191.135 347.599 Q191.135 338.849 194.19 334.265 Q197.269 329.659 203.079 329.659 Z" fill="#000000" fill-rule="nonzero" fill-opacity="1"></path><path clip-path="url(#clip560)" d="M223.287 330.284 L241.644 330.284 L241.644 334.219 L227.57 334.219 L227.57 342.691 Q228.588 342.344 229.607 342.182 Q230.625 341.997 231.644 341.997 Q237.431 341.997 240.81 345.168 Q244.19 348.339 244.19 353.756 Q244.19 359.335 240.718 362.436 Q237.246 365.515 230.926 365.515 Q228.75 365.515 226.482 365.145 Q224.236 364.774 221.829 364.034 L221.829 359.335 Q223.912 360.469 226.135 361.024 Q228.357 361.58 230.834 361.58 Q234.838 361.58 237.176 359.474 Q239.514 357.367 239.514 353.756 Q239.514 350.145 237.176 348.038 Q234.838 345.932 230.834 345.932 Q228.959 345.932 227.084 346.349 Q225.232 346.765 223.287 347.645 L223.287 330.284 Z" fill="#000000" fill-rule="nonzero" fill-opacity="1"></path><path clip-path="url(#clip560)" d="M126.529 125.43 Q122.918 125.43 121.089 128.995 Q119.283 132.536 119.283 139.666 Q119.283 146.772 121.089 150.337 Q122.918 153.879 126.529 153.879 Q130.163 153.879 131.968 150.337 Q133.797 146.772 133.797 139.666 Q133.797 132.536 131.968 128.995 Q130.163 125.43 126.529 125.43 M126.529 121.726 Q132.339 121.726 135.394 126.333 Q138.473 130.916 138.473 139.666 Q138.473 148.393 135.394 152.999 Q132.339 157.582 126.529 157.582 Q120.718 157.582 117.64 152.999 Q114.584 148.393 114.584 139.666 Q114.584 130.916 117.64 126.333 Q120.718 121.726 126.529 121.726 Z" fill="#000000" fill-rule="nonzero" fill-opacity="1"></path><path clip-path="url(#clip560)" d="M146.691 151.032 L151.575 151.032 L151.575 156.911 L146.691 156.911 L146.691 151.032 Z" fill="#000000" fill-rule="nonzero" fill-opacity="1"></path><path clip-path="url(#clip560)" d="M171.76 125.43 Q168.149 125.43 166.32 128.995 Q164.515 132.536 164.515 139.666 Q164.515 146.772 166.32 150.337 Q168.149 153.879 171.76 153.879 Q175.394 153.879 177.2 150.337 Q179.028 146.772 179.028 139.666 Q179.028 132.536 177.2 128.995 Q175.394 125.43 171.76 125.43 M171.76 121.726 Q177.57 121.726 180.626 126.333 Q183.704 130.916 183.704 139.666 Q183.704 148.393 180.626 152.999 Q177.57 157.582 171.76 157.582 Q165.95 157.582 162.871 152.999 Q159.815 148.393 159.815 139.666 Q159.815 130.916 162.871 126.333 Q165.95 121.726 171.76 121.726 Z" fill="#000000" fill-rule="nonzero" fill-opacity="1"></path><path clip-path="url(#clip560)" d="M201.922 125.43 Q198.311 125.43 196.482 128.995 Q194.676 132.536 194.676 139.666 Q194.676 146.772 196.482 150.337 Q198.311 153.879 201.922 153.879 Q205.556 153.879 207.362 150.337 Q209.19 146.772 209.19 139.666 Q209.19 132.536 207.362 128.995 Q205.556 125.43 201.922 125.43 M201.922 121.726 Q207.732 121.726 210.787 126.333 Q213.866 130.916 213.866 139.666 Q213.866 148.393 210.787 152.999 Q207.732 157.582 201.922 157.582 Q196.112 157.582 193.033 152.999 Q189.977 148.393 189.977 139.666 Q189.977 130.916 193.033 126.333 Q196.112 121.726 201.922 121.726 Z" fill="#000000" fill-rule="nonzero" fill-opacity="1"></path><path clip-path="url(#clip560)" d="M232.662 137.768 Q229.514 137.768 227.662 139.92 Q225.834 142.073 225.834 145.823 Q225.834 149.55 227.662 151.726 Q229.514 153.879 232.662 153.879 Q235.81 153.879 237.639 151.726 Q239.491 149.55 239.491 145.823 Q239.491 142.073 237.639 139.92 Q235.81 137.768 232.662 137.768 M241.945 123.115 L241.945 127.374 Q240.185 126.541 238.38 126.101 Q236.597 125.661 234.838 125.661 Q230.209 125.661 227.755 128.786 Q225.324 131.911 224.977 138.231 Q226.343 136.217 228.403 135.152 Q230.463 134.064 232.94 134.064 Q238.148 134.064 241.158 137.235 Q244.19 140.383 244.19 145.823 Q244.19 151.147 241.042 154.365 Q237.894 157.582 232.662 157.582 Q226.667 157.582 223.496 152.999 Q220.324 148.393 220.324 139.666 Q220.324 131.471 224.213 126.61 Q228.102 121.726 234.653 121.726 Q236.412 121.726 238.195 122.073 Q240 122.421 241.945 123.115 Z" fill="#000000" fill-rule="nonzero" fill-opacity="1"></path><path clip-path="url(#clip560)" d="M34.7219 742.152 Q31.4754 740.21 28.6108 735.404 Q27.4968 733.526 27.4968 727.734 Q27.4968 721.241 32.6531 717.198 Q37.8093 713.124 46.212 713.124 Q54.6147 713.124 59.771 717.198 Q64.9272 721.241 64.9272 727.734 Q64.9272 731.648 63.3994 734.481 Q61.8398 737.282 58.657 739.128 L77.5631 739.128 L77.5631 745.016 L46.5303 745.016 Q39.1779 745.016 34.7219 742.152 M46.212 719.204 Q39.7508 719.204 36.0905 721.877 Q32.3984 724.519 32.3984 729.166 Q32.3984 733.813 36.0905 736.486 Q39.7508 739.128 46.212 739.128 Q52.6732 739.128 56.3653 736.486 Q60.0256 733.813 60.0256 729.166 Q60.0256 724.519 56.3653 721.877 Q52.6732 719.204 46.212 719.204 Z" fill="#000000" fill-rule="nonzero" fill-opacity="1"></path><polyline clip-path="url(#clip562)" style="stroke:#009af9; stroke-linecap:round; stroke-linejoin:round; stroke-width:4; stroke-opacity:1; fill:none" points="338.848,85.838 342.758,95.4532 346.669,104.999 350.579,114.475 354.49,123.882 358.4,133.221 362.311,142.492 366.221,151.696 370.132,160.833 374.042,169.904 377.953,178.909 381.863,187.849 385.774,196.723 389.684,205.534 393.595,214.28 397.505,222.963 401.416,231.583 405.326,240.14 409.237,248.635 413.147,257.069 417.058,265.441 420.968,273.752 424.879,282.004 428.789,290.195 432.7,298.327 436.61,306.4 440.521,314.414 444.431,322.37 448.342,330.268 452.252,338.109 456.163,345.893 460.073,353.621 463.984,361.292 467.894,368.908 471.805,376.468 475.715,383.974 479.626,391.425 483.536,398.822 487.447,406.165 491.357,413.455 495.268,420.692 499.178,427.876 503.089,435.009 506.999,442.089 510.91,449.118 514.82,456.096 518.731,463.024 522.641,469.901 526.552,476.728 530.462,483.505 534.373,490.234 538.283,496.913 542.194,503.544 546.104,510.127 550.015,516.662 553.925,523.149 557.836,529.59 561.746,535.983 565.657,542.331 569.567,548.632 573.478,554.887 577.388,561.097 581.299,567.261 585.209,573.381 589.12,579.457 593.03,585.488 596.941,591.475 600.851,597.419 604.762,603.32 608.672,609.178 612.583,614.993 616.493,620.766 620.404,626.497 624.314,632.187 628.225,637.835 632.135,643.442 636.046,649.008 639.956,654.533 643.867,660.019 647.777,665.465 651.688,670.871 655.598,676.237 659.509,681.565 663.419,686.854 667.33,692.105 671.24,697.317 675.151,702.491 679.061,707.628 682.972,712.727 686.882,717.79 690.793,722.815 694.703,727.804 698.614,732.756 702.524,737.673 706.435,742.554 710.345,747.399 714.256,752.209 718.166,756.984 722.077,761.724 725.987,766.429 729.898,771.101 733.808,775.738 737.719,780.342 741.629,784.912 745.54,789.448 749.45,793.952 753.361,798.423 757.271,802.861 761.182,807.267 765.092,811.641 769.003,815.983 772.913,820.293 776.824,824.572 780.734,828.82 784.645,833.036 788.555,837.222 792.466,841.378 796.376,845.503 800.287,849.598 804.197,853.663 808.108,857.699 812.018,861.705 815.929,865.681 819.839,869.629 823.75,873.548 827.66,877.439 831.571,881.301 835.481,885.134 839.392,888.94 843.302,892.718 847.213,896.469 851.123,900.192 855.034,903.887 858.944,907.556 862.855,911.198 866.765,914.814 870.676,918.402 874.586,921.965 878.497,925.502 882.407,929.013 886.318,932.498 890.228,935.957 894.139,939.392 898.049,942.801 901.96,946.185 905.87,949.544 909.781,952.879 913.691,956.19 917.602,959.476 921.512,962.738 925.423,965.976 929.333,969.191 933.244,972.382 937.154,975.549 941.065,978.694 944.975,981.815 948.886,984.913 952.796,987.989 956.707,991.042 960.617,994.073 964.528,997.081 968.438,1000.07 972.349,1003.03 976.259,1005.97 980.17,1008.9 984.08,1011.8 987.991,1014.67 991.901,1017.53 995.812,1020.37 999.722,1023.18 1003.63,1025.98 1007.54,1028.75 1011.45,1031.51 1015.36,1034.24 1019.27,1036.95 1023.19,1039.65 1027.1,1042.32 1031.01,1044.97 1034.92,1047.61 1038.83,1050.22 1042.74,1052.82 1046.65,1055.39 1050.56,1057.95 1054.47,1060.49 1058.38,1063.01 1062.29,1065.51 1066.2,1067.99 1070.11,1070.46 1074.02,1072.9 1077.93,1075.33 1081.84,1077.74 1085.75,1080.14 1089.66,1082.51 1093.57,1084.87 1097.48,1087.21 1101.4,1089.53 1105.31,1091.84 1109.22,1094.12 1113.13,1096.4 1117.04,1098.65 1120.95,1100.89 1124.86,1103.11 1128.77,1105.31 1132.68,1107.5 1136.59,1109.67 1140.5,1111.83 1144.41,1113.97 1148.32,1116.09 1152.23,1118.2 1156.14,1120.3 1160.05,1122.37 1163.96,1124.43 1167.87,1126.48 1171.78,1128.51 1175.69,1130.53 1179.61,1132.53 1183.52,1134.51 1187.43,1136.49 1191.34,1138.44 1195.25,1140.38 1199.16,1142.31 1203.07,1144.23 1206.98,1146.12 1210.89,1148.01 1214.8,1149.88 1218.71,1151.74 1222.62,1153.58 1226.53,1155.41 1230.44,1157.22 1234.35,1159.02 1238.26,1160.81 1242.17,1162.59 1246.08,1164.35 1249.99,1166.1 1253.9,1167.83 1257.82,1169.55 1261.73,1171.26 1265.64,1172.96 1269.55,1174.64 1273.46,1176.31 1277.37,1177.97 1281.28,1179.62 1285.19,1181.25 1289.1,1182.87 1293.01,1184.48 1296.92,1186.08 1300.83,1187.66 1304.74,1189.24 1308.65,1190.8 1312.56,1192.35 1316.47,1193.88 1320.38,1195.41 1324.29,1196.92 1328.2,1198.43 1332.11,1199.92 1336.03,1201.4 1339.94,1202.87 1343.85,1204.32 1347.76,1205.77 1351.67,1207.21 1355.58,1208.63 1359.49,1210.05 1363.4,1211.45 1367.31,1212.84 1371.22,1214.22 1375.13,1215.59 1379.04,1216.95 1382.95,1218.3 1386.86,1219.64 1390.77,1220.97 1394.68,1222.29 1398.59,1223.6 1402.5,1224.9 1406.41,1226.19 1410.33,1227.47 1414.24,1228.74 1418.15,1230 1422.06,1231.25 1425.97,1232.49 1429.88,1233.72 1433.79,1234.94 1437.7,1236.16 1441.61,1237.36 1445.52,1238.55 1449.43,1239.74 1453.34,1240.91 1457.25,1242.08 1461.16,1243.24 1465.07,1244.38 1468.98,1245.52 1472.89,1246.65 1476.8,1247.77 1480.71,1248.89 1484.62,1249.99 1488.54,1251.09 1492.45,1252.17 1496.36,1253.25 1500.27,1254.32 1504.18,1255.38 1508.09,1256.44 1512,1257.48 1515.91,1258.52 1519.82,1259.55 1523.73,1260.57 1527.64,1261.58 1531.55,1262.58 1535.46,1263.58 1539.37,1264.57 1543.28,1265.55 1547.19,1266.52 1551.1,1267.49 1555.01,1268.45 1558.92,1269.4 1562.83,1270.34 1566.75,1271.27 1570.66,1272.2 1574.57,1273.12 1578.48,1274.03 1582.39,1274.94 1586.3,1275.84 1590.21,1276.73 1594.12,1277.61 1598.03,1278.49 1601.94,1279.36 1605.85,1280.22 1609.76,1281.08 1613.67,1281.93 1617.58,1282.77 1621.49,1283.6 1625.4,1284.43 1629.31,1285.25 1633.22,1286.07 1637.13,1286.88 1641.04,1287.68 1644.96,1288.48 1648.87,1289.26 1652.78,1290.05 1656.69,1290.82 1660.6,1291.59 1664.51,1292.36 1668.42,1293.11 1672.33,1293.86 1676.24,1294.61 1680.15,1295.35 1684.06,1296.08 1687.97,1296.8 1691.88,1297.52 1695.79,1298.24 1699.7,1298.95 1703.61,1299.65 1707.52,1300.34 1711.43,1301.04 1715.34,1301.72 1719.25,1302.4 1723.17,1303.07 1727.08,1303.74 1730.99,1304.4 1734.9,1305.06 1738.81,1305.71 1742.72,1306.35 1746.63,1306.99 1750.54,1307.63 1754.45,1308.26 1758.36,1308.88 1762.27,1309.5 1766.18,1310.11 1770.09,1310.72 1774,1311.32 1777.91,1311.92 1781.82,1312.51 1785.73,1313.09 1789.64,1313.67 1793.55,1314.25 1797.46,1314.82 1801.38,1315.39 1805.29,1315.95 1809.2,1316.51 1813.11,1317.06 1817.02,1317.6 1820.93,1318.14 1824.84,1318.68 1828.75,1319.21 1832.66,1319.74 1836.57,1320.26 1840.48,1320.78 1844.39,1321.29 1848.3,1321.8 1852.21,1322.3 1856.12,1322.8 1860.03,1323.3 1863.94,1323.79 1867.85,1324.27 1871.76,1324.75 1875.67,1325.23 1879.59,1325.7 1883.5,1326.17 1887.41,1326.63 1891.32,1327.09 1895.23,1327.54 1899.14,1327.99 1903.05,1328.43 1906.96,1328.88 1910.87,1329.31 1914.78,1329.74 1918.69,1330.17 1922.6,1330.6 1926.51,1331.02 1930.42,1331.43 1934.33,1331.84 1938.24,1332.25 1942.15,1332.65 1946.06,1333.05 1949.97,1333.45 1953.88,1333.84 1957.8,1334.23 1961.71,1334.61 1965.62,1334.99 1969.53,1335.36 1973.44,1335.73 1977.35,1336.1 1981.26,1336.46 1985.17,1336.82 1989.08,1337.18 1992.99,1337.53 1996.9,1337.88 2000.81,1338.22 2004.72,1338.56 2008.63,1338.9 2012.54,1339.23 2016.45,1339.56 2020.36,1339.88 2024.27,1340.2 2028.18,1340.52 2032.09,1340.83 2036.01,1341.14 2039.92,1341.45 2043.83,1341.75 2047.74,1342.05 2051.65,1342.34 2055.56,1342.63 2059.47,1342.92 2063.38,1343.2 2067.29,1343.48 2071.2,1343.76 2075.11,1344.03 2079.02,1344.3 2082.93,1344.57 2086.84,1344.83 2090.75,1345.08 2094.66,1345.34 2098.57,1345.59 2102.48,1345.83 2106.39,1346.07 2110.3,1346.31 2114.22,1346.55 2118.13,1346.78 2122.04,1347 2125.95,1347.23 2129.86,1347.45 2133.77,1347.66 2137.68,1347.87 2141.59,1348.08 2145.5,1348.28 2149.41,1348.48 2153.32,1348.68 2157.23,1348.87 2161.14,1349.06 2165.05,1349.24 2168.96,1349.42 2172.87,1349.6 2176.78,1349.77 2180.69,1349.93 2184.6,1350.1 2188.51,1350.26 2192.43,1350.41 2196.34,1350.56 2200.25,1350.7 2204.16,1350.84 2208.07,1350.98 2211.98,1351.11 2215.89,1351.23 2219.8,1351.36 2223.71,1351.47 2227.62,1351.58 2231.53,1351.69 2235.44,1351.79 2239.35,1351.88 2243.26,1351.97 2247.17,1352.05 2251.08,1352.13 2254.99,1352.2 2258.9,1352.27 2262.81,1352.32 2266.72,1352.38 2270.64,1352.42 2274.55,1352.46 2278.46,1352.49 2282.37,1352.51 2286.28,1352.53 2290.19,1352.54 2294.1,1352.53 "></polyline>
<polyline clip-path="url(#clip562)" style="stroke:#e26f46; stroke-linecap:round; stroke-linejoin:round; stroke-width:4; stroke-opacity:1; fill:none" points="338.848,824.441 342.758,828.512 346.669,832.553 350.579,836.565 354.49,840.549 358.4,844.503 362.311,848.429 366.221,852.326 370.132,856.195 374.042,860.037 377.953,863.85 381.863,867.636 385.774,871.394 389.684,875.125 393.595,878.83 397.505,882.507 401.416,886.158 405.326,889.783 409.237,893.381 413.147,896.953 417.058,900.499 420.968,904.02 424.879,907.515 428.789,910.985 432.7,914.43 436.61,917.85 440.521,921.245 444.431,924.616 448.342,927.962 452.252,931.284 456.163,934.582 460.073,937.857 463.984,941.107 467.894,944.334 471.805,947.538 475.715,950.718 479.626,953.876 483.536,957.01 487.447,960.122 491.357,963.212 495.268,966.279 499.178,969.324 503.089,972.347 506.999,975.348 510.91,978.327 514.82,981.285 518.731,984.221 522.641,987.136 526.552,990.03 530.462,992.903 534.373,995.756 538.283,998.587 542.194,1001.4 546.104,1004.19 550.015,1006.96 553.925,1009.71 557.836,1012.44 561.746,1015.15 565.657,1017.84 569.567,1020.52 573.478,1023.17 577.388,1025.8 581.299,1028.42 585.209,1031.01 589.12,1033.59 593.03,1036.15 596.941,1038.69 600.851,1041.21 604.762,1043.71 608.672,1046.19 612.583,1048.66 616.493,1051.11 620.404,1053.54 624.314,1055.96 628.225,1058.35 632.135,1060.73 636.046,1063.09 639.956,1065.44 643.867,1067.76 647.777,1070.08 651.688,1072.37 655.598,1074.65 659.509,1076.91 663.419,1079.15 667.33,1081.38 671.24,1083.59 675.151,1085.79 679.061,1087.97 682.972,1090.14 686.882,1092.28 690.793,1094.42 694.703,1096.54 698.614,1098.64 702.524,1100.73 706.435,1102.8 710.345,1104.86 714.256,1106.9 718.166,1108.93 722.077,1110.94 725.987,1112.94 729.898,1114.92 733.808,1116.89 737.719,1118.85 741.629,1120.79 745.54,1122.72 749.45,1124.63 753.361,1126.53 757.271,1128.41 761.182,1130.29 765.092,1132.14 769.003,1133.99 772.913,1135.82 776.824,1137.64 780.734,1139.45 784.645,1141.24 788.555,1143.02 792.466,1144.78 796.376,1146.54 800.287,1148.28 804.197,1150.01 808.108,1151.72 812.018,1153.43 815.929,1155.12 819.839,1156.8 823.75,1158.46 827.66,1160.12 831.571,1161.76 835.481,1163.39 839.392,1165.01 843.302,1166.62 847.213,1168.21 851.123,1169.8 855.034,1171.37 858.944,1172.93 862.855,1174.48 866.765,1176.02 870.676,1177.55 874.586,1179.07 878.497,1180.57 882.407,1182.07 886.318,1183.55 890.228,1185.02 894.139,1186.49 898.049,1187.94 901.96,1189.38 905.87,1190.81 909.781,1192.23 913.691,1193.64 917.602,1195.04 921.512,1196.43 925.423,1197.81 929.333,1199.18 933.244,1200.54 937.154,1201.89 941.065,1203.23 944.975,1204.56 948.886,1205.89 952.796,1207.2 956.707,1208.5 960.617,1209.79 964.528,1211.08 968.438,1212.35 972.349,1213.62 976.259,1214.87 980.17,1216.12 984.08,1217.36 987.991,1218.58 991.901,1219.8 995.812,1221.02 999.722,1222.22 1003.63,1223.41 1007.54,1224.6 1011.45,1225.77 1015.36,1226.94 1019.27,1228.1 1023.19,1229.25 1027.1,1230.39 1031.01,1231.53 1034.92,1232.65 1038.83,1233.77 1042.74,1234.88 1046.65,1235.98 1050.56,1237.08 1054.47,1238.16 1058.38,1239.24 1062.29,1240.31 1066.2,1241.38 1070.11,1242.43 1074.02,1243.48 1077.93,1244.52 1081.84,1245.55 1085.75,1246.58 1089.66,1247.59 1093.57,1248.6 1097.48,1249.61 1101.4,1250.6 1105.31,1251.59 1109.22,1252.57 1113.13,1253.54 1117.04,1254.51 1120.95,1255.47 1124.86,1256.42 1128.77,1257.37 1132.68,1258.31 1136.59,1259.24 1140.5,1260.17 1144.41,1261.09 1148.32,1262 1152.23,1262.91 1156.14,1263.8 1160.05,1264.7 1163.96,1265.58 1167.87,1266.46 1171.78,1267.34 1175.69,1268.2 1179.61,1269.07 1183.52,1269.92 1187.43,1270.77 1191.34,1271.61 1195.25,1272.45 1199.16,1273.28 1203.07,1274.1 1206.98,1274.92 1210.89,1275.73 1214.8,1276.54 1218.71,1277.34 1222.62,1278.13 1226.53,1278.92 1230.44,1279.71 1234.35,1280.48 1238.26,1281.26 1242.17,1282.02 1246.08,1282.78 1249.99,1283.54 1253.9,1284.29 1257.82,1285.03 1261.73,1285.77 1265.64,1286.51 1269.55,1287.24 1273.46,1287.96 1277.37,1288.68 1281.28,1289.39 1285.19,1290.1 1289.1,1290.8 1293.01,1291.5 1296.92,1292.19 1300.83,1292.88 1304.74,1293.56 1308.65,1294.24 1312.56,1294.91 1316.47,1295.58 1320.38,1296.24 1324.29,1296.9 1328.2,1297.55 1332.11,1298.2 1336.03,1298.85 1339.94,1299.48 1343.85,1300.12 1347.76,1300.75 1351.67,1301.38 1355.58,1302 1359.49,1302.61 1363.4,1303.22 1367.31,1303.83 1371.22,1304.44 1375.13,1305.03 1379.04,1305.63 1382.95,1306.22 1386.86,1306.81 1390.77,1307.39 1394.68,1307.96 1398.59,1308.54 1402.5,1309.11 1406.41,1309.67 1410.33,1310.23 1414.24,1310.79 1418.15,1311.34 1422.06,1311.89 1425.97,1312.44 1429.88,1312.98 1433.79,1313.51 1437.7,1314.05 1441.61,1314.58 1445.52,1315.1 1449.43,1315.62 1453.34,1316.14 1457.25,1316.66 1461.16,1317.17 1465.07,1317.67 1468.98,1318.18 1472.89,1318.68 1476.8,1319.17 1480.71,1319.66 1484.62,1320.15 1488.54,1320.64 1492.45,1321.12 1496.36,1321.6 1500.27,1322.07 1504.18,1322.54 1508.09,1323.01 1512,1323.48 1515.91,1323.94 1519.82,1324.4 1523.73,1324.85 1527.64,1325.3 1531.55,1325.75 1535.46,1326.19 1539.37,1326.64 1543.28,1327.07 1547.19,1327.51 1551.1,1327.94 1555.01,1328.37 1558.92,1328.8 1562.83,1329.22 1566.75,1329.64 1570.66,1330.05 1574.57,1330.47 1578.48,1330.88 1582.39,1331.29 1586.3,1331.69 1590.21,1332.09 1594.12,1332.49 1598.03,1332.89 1601.94,1333.28 1605.85,1333.67 1609.76,1334.06 1613.67,1334.44 1617.58,1334.82 1621.49,1335.2 1625.4,1335.58 1629.31,1335.95 1633.22,1336.32 1637.13,1336.69 1641.04,1337.06 1644.96,1337.42 1648.87,1337.78 1652.78,1338.14 1656.69,1338.49 1660.6,1338.85 1664.51,1339.2 1668.42,1339.54 1672.33,1339.89 1676.24,1340.23 1680.15,1340.57 1684.06,1340.91 1687.97,1341.24 1691.88,1341.58 1695.79,1341.91 1699.7,1342.23 1703.61,1342.56 1707.52,1342.88 1711.43,1343.2 1715.34,1343.52 1719.25,1343.84 1723.17,1344.15 1727.08,1344.46 1730.99,1344.77 1734.9,1345.08 1738.81,1345.39 1742.72,1345.69 1746.63,1345.99 1750.54,1346.29 1754.45,1346.58 1758.36,1346.88 1762.27,1347.17 1766.18,1347.46 1770.09,1347.75 1774,1348.03 1777.91,1348.32 1781.82,1348.6 1785.73,1348.88 1789.64,1349.15 1793.55,1349.43 1797.46,1349.7 1801.38,1349.97 1805.29,1350.24 1809.2,1350.51 1813.11,1350.78 1817.02,1351.04 1820.93,1351.3 1824.84,1351.56 1828.75,1351.82 1832.66,1352.08 1836.57,1352.33 1840.48,1352.58 1844.39,1352.83 1848.3,1353.08 1852.21,1353.33 1856.12,1353.57 1860.03,1353.82 1863.94,1354.06 1867.85,1354.3 1871.76,1354.54 1875.67,1354.77 1879.59,1355.01 1883.5,1355.24 1887.41,1355.47 1891.32,1355.7 1895.23,1355.93 1899.14,1356.16 1903.05,1356.38 1906.96,1356.6 1910.87,1356.83 1914.78,1357.05 1918.69,1357.26 1922.6,1357.48 1926.51,1357.7 1930.42,1357.91 1934.33,1358.12 1938.24,1358.33 1942.15,1358.54 1946.06,1358.75 1949.97,1358.96 1953.88,1359.16 1957.8,1359.36 1961.71,1359.56 1965.62,1359.76 1969.53,1359.96 1973.44,1360.16 1977.35,1360.36 1981.26,1360.55 1985.17,1360.74 1989.08,1360.93 1992.99,1361.13 1996.9,1361.31 2000.81,1361.5 2004.72,1361.69 2008.63,1361.87 2012.54,1362.06 2016.45,1362.24 2020.36,1362.42 2024.27,1362.6 2028.18,1362.78 2032.09,1362.95 2036.01,1363.13 2039.92,1363.3 2043.83,1363.48 2047.74,1363.65 2051.65,1363.82 2055.56,1363.99 2059.47,1364.16 2063.38,1364.32 2067.29,1364.49 2071.2,1364.65 2075.11,1364.82 2079.02,1364.98 2082.93,1365.14 2086.84,1365.3 2090.75,1365.46 2094.66,1365.61 2098.57,1365.77 2102.48,1365.93 2106.39,1366.08 2110.3,1366.23 2114.22,1366.39 2118.13,1366.54 2122.04,1366.69 2125.95,1366.83 2129.86,1366.98 2133.77,1367.13 2137.68,1367.27 2141.59,1367.42 2145.5,1367.56 2149.41,1367.7 2153.32,1367.84 2157.23,1367.99 2161.14,1368.12 2165.05,1368.26 2168.96,1368.4 2172.87,1368.54 2176.78,1368.67 2180.69,1368.81 2184.6,1368.94 2188.51,1369.07 2192.43,1369.2 2196.34,1369.33 2200.25,1369.46 2204.16,1369.59 2208.07,1369.72 2211.98,1369.84 2215.89,1369.97 2219.8,1370.1 2223.71,1370.22 2227.62,1370.34 2231.53,1370.46 2235.44,1370.59 2239.35,1370.71 2243.26,1370.83 2247.17,1370.94 2251.08,1371.06 2254.99,1371.18 2258.9,1371.29 2262.81,1371.41 2266.72,1371.52 2270.64,1371.64 2274.55,1371.75 2278.46,1371.86 2282.37,1371.97 2286.28,1372.08 2290.19,1372.19 2294.1,1372.3 "></polyline>
<path clip-path="url(#clip560)" d="M2033.61 248.219 L2283.67 248.219 L2283.67 92.6992 L2033.61 92.6992  Z" fill="#ffffff" fill-rule="evenodd" fill-opacity="1"></path>
<polyline clip-path="url(#clip560)" style="stroke:#000000; stroke-linecap:round; stroke-linejoin:round; stroke-width:4; stroke-opacity:1; fill:none" points="2033.61,248.219 2283.67,248.219 2283.67,92.6992 2033.61,92.6992 2033.61,248.219 "></polyline>
<polyline clip-path="url(#clip560)" style="stroke:#009af9; stroke-linecap:round; stroke-linejoin:round; stroke-width:4; stroke-opacity:1; fill:none" points="2056.64,144.539 2194.81,144.539 "></polyline>
<path clip-path="url(#clip560)" d="M2238 140.014 Q2237.15 139.713 2236.29 139.481 Q2234 138.879 2231.54 138.879 Q2227.31 138.879 2224.95 141.171 Q2222.75 143.301 2222.33 147.213 L2238 147.213 L2238 150.546 L2222.33 150.546 Q2222.75 154.458 2224.95 156.588 Q2227.31 158.879 2231.54 158.879 Q2234.51 158.879 2236.29 158.278 L2238 157.699 L2238 161.565 L2236.17 161.981 Q2233.77 162.49 2231.29 162.49 Q2225.09 162.49 2221.48 158.879 Q2217.84 155.268 2217.84 148.879 Q2217.84 142.491 2221.48 138.879 Q2225.09 135.268 2231.29 135.268 Q2233.63 135.268 2236.17 135.778 Q2237.1 135.963 2238 136.241 L2238 140.014 Z" fill="#000000" fill-rule="nonzero" fill-opacity="1"></path><path clip-path="url(#clip560)" d="M2257.96 134.042 L2257.96 126.194 L2260.64 126.194 L2260.64 146.356 L2257.96 146.356 L2257.96 144.18 Q2257.1 145.477 2255.83 146.102 Q2254.53 146.727 2252.73 146.727 Q2249.76 146.727 2247.91 144.643 Q2246.04 142.537 2246.04 139.111 Q2246.04 135.685 2247.91 133.579 Q2249.76 131.495 2252.73 131.495 Q2254.53 131.495 2255.83 132.12 Q2257.1 132.745 2257.96 134.042 M2250.02 134.991 Q2248.81 136.472 2248.81 139.111 Q2248.81 141.75 2250.02 143.231 Q2251.24 144.736 2253.37 144.736 Q2255.5 144.736 2256.73 143.231 Q2257.96 141.75 2257.96 139.111 Q2257.96 136.472 2256.73 134.991 Q2255.5 133.486 2253.37 133.486 Q2251.24 133.486 2250.02 134.991 Z" fill="#000000" fill-rule="nonzero" fill-opacity="1"></path><polyline clip-path="url(#clip560)" style="stroke:#e26f46; stroke-linecap:round; stroke-linejoin:round; stroke-width:4; stroke-opacity:1; fill:none" points="2056.64,196.379 2194.81,196.379 "></polyline>
<path clip-path="url(#clip560)" d="M2239.55 198.011 L2239.55 213.659 L2235.29 213.659 L2235.29 198.15 Q2235.29 194.469 2233.86 192.641 Q2232.42 190.812 2229.55 190.812 Q2226.11 190.812 2224.11 193.011 Q2222.12 195.21 2222.12 199.006 L2222.12 213.659 L2217.84 213.659 L2217.84 187.733 L2222.12 187.733 L2222.12 191.761 Q2223.65 189.423 2225.71 188.266 Q2227.79 187.108 2230.5 187.108 Q2234.97 187.108 2237.26 189.886 Q2239.55 192.641 2239.55 198.011 Z" fill="#000000" fill-rule="nonzero" fill-opacity="1"></path><path clip-path="url(#clip560)" d="M2257.15 185.882 L2257.15 178.034 L2259.83 178.034 L2259.83 198.196 L2257.15 198.196 L2257.15 196.02 Q2256.29 197.317 2255.02 197.942 Q2253.72 198.567 2251.92 198.567 Q2248.95 198.567 2247.1 196.483 Q2245.23 194.377 2245.23 190.951 Q2245.23 187.525 2247.1 185.419 Q2248.95 183.335 2251.92 183.335 Q2253.72 183.335 2255.02 183.96 Q2256.29 184.585 2257.15 185.882 M2249.21 186.831 Q2248 188.312 2248 190.951 Q2248 193.59 2249.21 195.071 Q2250.43 196.576 2252.56 196.576 Q2254.69 196.576 2255.92 195.071 Q2257.15 193.59 2257.15 190.951 Q2257.15 188.312 2255.92 186.831 Q2254.69 185.326 2252.56 185.326 Q2250.43 185.326 2249.21 186.831 Z" fill="#000000" fill-rule="nonzero" fill-opacity="1"></path></svg>